<?xml version="1.0"?>
<svg xmlns="http://www.w3.org/2000/svg" viewBox="0 0 514 120" role="img" aria-label="darsjadval">
  <title>darsjadval</title>
  <g transform="translate(0 6) scale(0.54)">
    <rect x="22" y="40" width="156" height="36" rx="9" fill="#4F46E5"></rect>
    <rect x="32" y="50" width="30" height="16" rx="3.5" fill="#ffffff" fill-opacity="0.95"></rect>
    <rect x="66" y="50" width="30" height="16" rx="3.5" fill="#ffffff" fill-opacity="0.42"></rect>
    <rect x="100" y="50" width="30" height="16" rx="3.5" fill="#14B8A6"></rect>
    <rect x="134" y="50" width="36" height="16" rx="3.5" fill="#ffffff" fill-opacity="0.42"></rect>
    <rect x="22" y="82" width="108" height="36" rx="9" fill="#4F46E5"></rect>
    <rect x="32" y="92" width="30" height="16" rx="3.5" fill="#ffffff" fill-opacity="0.95"></rect>
    <rect x="66" y="92" width="30" height="16" rx="3.5" fill="#ffffff" fill-opacity="0.42"></rect>
    <rect x="100" y="92" width="22" height="16" rx="3.5" fill="#ffffff" fill-opacity="0.95"></rect>
    <rect x="22" y="124" width="156" height="36" rx="9" fill="#4F46E5"></rect>
    <rect x="32" y="134" width="30" height="16" rx="3.5" fill="#ffffff" fill-opacity="0.95"></rect>
    <rect x="66" y="134" width="30" height="16" rx="3.5" fill="#ffffff" fill-opacity="0.42"></rect>
    <rect x="100" y="134" width="30" height="16" rx="3.5" fill="#ffffff" fill-opacity="0.95"></rect>
    <rect x="134" y="134" width="36" height="16" rx="3.5" fill="#ffffff" fill-opacity="0.42"></rect>
  </g>
  <path d="M150.96 88.96L150.96 88.96Q144.56 88.96 139.52 85.92Q134.48 82.88 131.56 77.68Q128.64 72.48 128.64 66.16L128.64 66.16Q128.64 59.76 131.60 54.60Q134.56 49.44 139.60 46.40Q144.64 43.36 150.88 43.36L150.88 43.36Q155.68 43.36 159.44 45.12L159.44 45.12Q161.76 46.32 163.44 48L163.44 48L163.44 27.44L175.44 27.44L175.44 88L164.24 88L164.24 83.84Q162.24 86.08 159.28 87.28L159.28 87.28Q155.44 88.96 150.96 88.96ZM152.40 78.16L152.40 78.16Q155.68 78.16 158.16 76.64Q160.64 75.12 162.04 72.40Q163.44 69.68 163.44 66.16Q163.44 62.64 162.04 59.92Q160.64 57.20 158.16 55.68Q155.68 54.16 152.40 54.16Q149.12 54.16 146.52 55.72Q143.92 57.28 142.48 59.96Q141.04 62.64 141.04 66.16Q141.04 69.68 142.48 72.40Q143.92 75.12 146.52 76.64Q149.12 78.16 152.40 78.16Z" fill="#0F172A"></path><path d="M195.36 88.96L195.36 88.96Q190.64 88.96 187.20 87.44Q183.76 85.92 181.92 83.08Q180.08 80.24 180.08 76.32L180.08 76.32Q180.08 72.64 181.76 69.80Q183.44 66.96 186.92 65.04Q190.40 63.12 195.60 62.32L195.60 62.32L207.68 60.40L207.68 59.20Q207.68 56.72 205.72 55.04Q203.76 53.36 200.40 53.36L200.40 53.36Q197.20 53.36 194.76 55.12Q192.32 56.88 191.20 59.76L191.20 59.76L181.60 55.20Q182.88 51.52 185.68 48.88Q188.48 46.24 192.40 44.80Q196.32 43.36 200.96 43.36L200.96 43.36Q206.48 43.36 210.72 45.36Q214.96 47.36 217.32 50.92Q219.68 54.48 219.68 59.20L219.68 59.20L219.68 88L208.48 88L208.48 83.84Q207.76 84.64 206.96 85.20L206.96 85.20Q204.64 87.12 201.76 88.04Q198.88 88.96 195.36 88.96ZM207.68 70.56L207.68 69.20L197.76 70.96Q195.20 71.44 193.84 72.60Q192.48 73.76 192.48 75.92L192.48 75.92Q192.48 77.92 194 79.04Q195.52 80.16 197.76 80.16L197.76 80.16Q200.72 80.16 202.96 78.88Q205.20 77.60 206.44 75.40Q207.68 73.20 207.68 70.56L207.68 70.56Z" fill="#0F172A"></path><path d="M238.08 88L226.08 88L226.08 44.32L237.28 44.32L237.28 50.80Q238.72 47.28 241.28 45.76L241.28 45.76Q244.56 43.84 249.12 43.84L249.12 43.84L251.68 43.84L251.68 54.24L247.92 54.24Q243.52 54.24 240.80 56.92Q238.08 59.60 238.08 64.48L238.08 64.48L238.08 88Z" fill="#0F172A"></path><path d="M271.68 88.96L271.68 88.96Q264.48 88.96 259.16 85.56Q253.84 82.16 251.92 76.40L251.92 76.40L260.72 72.24Q262.40 75.76 265.28 77.76Q268.16 79.76 271.68 79.76L271.68 79.76Q274.24 79.76 275.60 78.72Q276.96 77.68 276.96 75.84L276.96 75.84Q276.96 74.88 276.48 74.20Q276 73.52 275.04 72.96Q274.08 72.40 272.64 72L272.64 72L265.20 69.92Q259.84 68.40 256.96 65Q254.08 61.60 254.08 56.96L254.08 56.96Q254.08 52.88 256.16 49.84Q258.24 46.80 262 45.08Q265.76 43.36 270.64 43.36L270.64 43.36Q277.04 43.36 281.88 46.36Q286.72 49.36 288.72 54.80L288.72 54.80L279.84 58.96Q278.88 56.24 276.36 54.60Q273.84 52.96 270.64 52.96L270.64 52.96Q268.32 52.96 267 53.92Q265.68 54.88 265.68 56.56L265.68 56.56Q265.68 57.44 266.16 58.16Q266.64 58.88 267.72 59.44Q268.80 60 270.40 60.48L270.40 60.48L277.36 62.56Q282.80 64.16 285.68 67.40Q288.56 70.64 288.56 75.36L288.56 75.36Q288.56 79.44 286.44 82.48Q284.32 85.52 280.56 87.24Q276.80 88.96 271.68 88.96Z" fill="#0F172A"></path><path d="M288.08 105.76L288.08 105.76Q286.88 105.76 285.72 105.64Q284.56 105.52 283.76 105.36L283.76 105.36L283.76 95.12Q285.12 95.36 286.48 95.36L286.48 95.36Q289.92 95.36 291.64 93.92Q293.36 92.48 293.36 89.60L293.36 89.60L293.36 44.32L305.36 44.32L305.36 89.60Q305.36 94.72 303.32 98.36Q301.28 102 297.40 103.88Q293.52 105.76 288.08 105.76ZM305.36 40.40L293.36 40.40L293.36 28.40L305.36 28.40L305.36 40.40Z" fill="#0F172A"></path><path d="M325.28 88.96L325.28 88.96Q320.56 88.96 317.12 87.44Q313.68 85.92 311.84 83.08Q310.00 80.24 310.00 76.32L310.00 76.32Q310.00 72.64 311.68 69.80Q313.36 66.96 316.84 65.04Q320.32 63.12 325.52 62.32L325.52 62.32L337.60 60.40L337.60 59.20Q337.60 56.72 335.64 55.04Q333.68 53.36 330.32 53.36L330.32 53.36Q327.12 53.36 324.68 55.12Q322.24 56.88 321.12 59.76L321.12 59.76L311.52 55.20Q312.80 51.52 315.60 48.88Q318.40 46.24 322.32 44.80Q326.24 43.36 330.88 43.36L330.88 43.36Q336.40 43.36 340.64 45.36Q344.88 47.36 347.24 50.92Q349.60 54.48 349.60 59.20L349.60 59.20L349.60 88L338.40 88L338.40 83.84Q337.68 84.64 336.88 85.20L336.88 85.20Q334.56 87.12 331.68 88.04Q328.80 88.96 325.28 88.96ZM337.60 70.56L337.60 69.20L327.68 70.96Q325.12 71.44 323.76 72.60Q322.40 73.76 322.40 75.92L322.40 75.92Q322.40 77.92 323.92 79.04Q325.44 80.16 327.68 80.16L327.68 80.16Q330.64 80.16 332.88 78.88Q335.12 77.60 336.36 75.40Q337.60 73.20 337.60 70.56L337.60 70.56Z" fill="#0F172A"></path><path d="M376.56 88.96L376.56 88.96Q370.16 88.96 365.12 85.92Q360.08 82.88 357.16 77.68Q354.24 72.48 354.24 66.16L354.24 66.16Q354.24 59.76 357.20 54.60Q360.16 49.44 365.20 46.40Q370.24 43.36 376.48 43.36L376.48 43.36Q381.28 43.36 385.04 45.12L385.04 45.12Q387.36 46.32 389.04 48L389.04 48L389.04 27.44L401.04 27.44L401.04 88L389.84 88L389.84 83.84Q387.84 86.08 384.88 87.28L384.88 87.28Q381.04 88.96 376.56 88.96ZM378.00 78.16L378.00 78.16Q381.28 78.16 383.76 76.64Q386.24 75.12 387.64 72.40Q389.04 69.68 389.04 66.16Q389.04 62.64 387.64 59.92Q386.24 57.20 383.76 55.68Q381.28 54.16 378.00 54.16Q374.72 54.16 372.12 55.72Q369.52 57.28 368.08 59.96Q366.64 62.64 366.64 66.16Q366.64 69.68 368.08 72.40Q369.52 75.12 372.12 76.64Q374.72 78.16 378.00 78.16Z" fill="#0F172A"></path><path d="M431.52 88L421.12 88L403.92 44.32L416.88 44.32L426.32 70.48L435.76 44.32L448.72 44.32L431.52 88Z" fill="#0F172A"></path><path d="M465.12 88.96L465.12 88.96Q460.40 88.96 456.96 87.44Q453.52 85.92 451.68 83.08Q449.84 80.24 449.84 76.32L449.84 76.32Q449.84 72.64 451.52 69.80Q453.20 66.96 456.68 65.04Q460.16 63.12 465.36 62.32L465.36 62.32L477.44 60.40L477.44 59.20Q477.44 56.72 475.48 55.04Q473.52 53.36 470.16 53.36L470.16 53.36Q466.96 53.36 464.52 55.12Q462.08 56.88 460.96 59.76L460.96 59.76L451.36 55.20Q452.64 51.52 455.44 48.88Q458.24 46.24 462.16 44.80Q466.08 43.36 470.72 43.36L470.72 43.36Q476.24 43.36 480.48 45.36Q484.72 47.36 487.08 50.92Q489.44 54.48 489.44 59.20L489.44 59.20L489.44 88L478.24 88L478.24 83.84Q477.52 84.64 476.72 85.20L476.72 85.20Q474.40 87.12 471.52 88.04Q468.64 88.96 465.12 88.96ZM477.44 70.56L477.44 69.20L467.52 70.96Q464.96 71.44 463.60 72.60Q462.24 73.76 462.24 75.92L462.24 75.92Q462.24 77.92 463.76 79.04Q465.28 80.16 467.52 80.16L467.52 80.16Q470.48 80.16 472.72 78.88Q474.96 77.60 476.20 75.40Q477.44 73.20 477.44 70.56L477.44 70.56Z" fill="#0F172A"></path><path d="M507.84 88L495.84 88L495.84 27.44L507.84 27.44L507.84 88Z" fill="#0F172A"></path>
</svg>