claude<?xml version="1.0"?>
<svg xmlns="http://www.w3.org/2000/svg" viewBox="0 0 503 120" role="img" aria-label="Timetable">
  <title>Timetable</title>
  <g transform="translate(0 6) scale(0.54)">
    <rect x="22" y="40" width="156" height="36" rx="9" fill="#4F46E5"></rect>
    <rect x="32" y="50" width="30" height="16" rx="3.5" fill="#ffffff" fill-opacity="0.95"></rect>
    <rect x="66" y="50" width="30" height="16" rx="3.5" fill="#ffffff" fill-opacity="0.42"></rect>
    <rect x="100" y="50" width="30" height="16" rx="3.5" fill="#14B8A6"></rect>
    <rect x="134" y="50" width="36" height="16" rx="3.5" fill="#ffffff" fill-opacity="0.42"></rect>
    <rect x="22" y="82" width="108" height="36" rx="9" fill="#4F46E5"></rect>
    <rect x="32" y="92" width="30" height="16" rx="3.5" fill="#ffffff" fill-opacity="0.95"></rect>
    <rect x="66" y="92" width="30" height="16" rx="3.5" fill="#ffffff" fill-opacity="0.42"></rect>
    <rect x="100" y="92" width="22" height="16" rx="3.5" fill="#ffffff" fill-opacity="0.95"></rect>
    <rect x="22" y="124" width="156" height="36" rx="9" fill="#4F46E5"></rect>
    <rect x="32" y="134" width="30" height="16" rx="3.5" fill="#ffffff" fill-opacity="0.95"></rect>
    <rect x="66" y="134" width="30" height="16" rx="3.5" fill="#ffffff" fill-opacity="0.42"></rect>
    <rect x="100" y="134" width="30" height="16" rx="3.5" fill="#ffffff" fill-opacity="0.95"></rect>
    <rect x="134" y="134" width="36" height="16" rx="3.5" fill="#ffffff" fill-opacity="0.42"></rect>
  </g>
  <path d="M154.40 88L142 88L142 39.20L126.88 39.20L126.88 28.40L169.28 28.40L169.28 39.20L154.40 39.20L154.40 88Z" fill="#0F172A"></path><path d="M184.16 88L172.16 88L172.16 44.32L184.16 44.32L184.16 88ZM184.16 40.40L172.16 40.40L172.16 28.40L184.16 28.40L184.16 40.40Z" fill="#0F172A"></path><path d="M202.56 88L190.56 88L190.56 44.32L201.76 44.32L201.76 49.60Q202.96 47.20 205.20 45.76L205.20 45.76Q208.88 43.36 214 43.36L214 43.36Q219.44 43.36 223.60 46.08L223.60 46.08Q226 47.76 227.28 50L227.28 50Q229.04 47.44 231.44 45.92L231.44 45.92Q235.44 43.36 240.80 43.36L240.80 43.36Q245.52 43.36 249.16 45.44Q252.80 47.52 254.88 51.24Q256.96 54.96 256.96 59.92L256.96 59.92L256.96 88L244.96 88L244.96 62.48Q244.96 59.92 244.04 58.08Q243.12 56.24 241.44 55.20Q239.76 54.16 237.36 54.16L237.36 54.16Q235.04 54.16 233.32 55.20Q231.60 56.24 230.68 58.08Q229.76 59.92 229.76 62.48L229.76 62.48L229.76 88L217.76 88L217.76 62.48Q217.76 59.92 216.84 58.08Q215.92 56.24 214.24 55.20Q212.56 54.16 210.16 54.16L210.16 54.16Q207.84 54.16 206.12 55.20Q204.40 56.24 203.48 58.08Q202.56 59.92 202.56 62.48L202.56 62.48L202.56 88Z" fill="#0F172A"></path><path d="M283.52 88.96L283.52 88.96Q276.56 88.96 271.44 85.88Q266.32 82.80 263.52 77.60Q260.72 72.40 260.72 66.08L260.72 66.08Q260.72 59.52 263.64 54.40Q266.56 49.28 271.52 46.32Q276.48 43.36 282.72 43.36L282.72 43.36Q287.92 43.36 291.92 45Q295.92 46.64 298.68 49.60Q301.44 52.56 302.88 56.44Q304.32 60.32 304.32 64.88L304.32 64.88Q304.32 66.16 304.20 67.40Q304.08 68.64 303.76 69.52L303.76 69.52L273.20 69.52Q273.36 71.20 274 72.64L274 72.64Q275.20 75.44 277.68 77Q280.16 78.56 283.68 78.56L283.68 78.56Q286.88 78.56 289.16 77.28Q291.44 76 292.72 73.76L292.72 73.76L302.32 78.32Q301.04 81.52 298.28 83.92Q295.52 86.32 291.76 87.64Q288 88.96 283.52 88.96ZM273.44 60.72L273.44 60.72L291.60 60.72Q291.52 59.68 291.20 58.72L291.20 58.72Q290.32 56.08 288.12 54.52Q285.92 52.96 282.72 52.96L282.72 52.96Q279.60 52.96 277.36 54.48Q275.12 56 274 58.96L274 58.96Q273.68 59.76 273.44 60.72Z" fill="#0F172A"></path><path d="M330 88.48L330 88.48Q322.08 88.48 317.72 84.20Q313.36 79.92 313.36 72.24L313.36 72.24L313.36 54.72L306 54.72L306 44.32L306.40 44.32Q309.76 44.32 311.56 42.64Q313.36 40.96 313.36 37.60L313.36 37.60L313.36 34.40L325.36 34.40L325.36 44.32L335.60 44.32L335.60 54.72L325.36 54.72L325.36 71.44Q325.36 73.68 326.16 75.16Q326.96 76.64 328.64 77.36Q330.32 78.08 332.80 78.08L332.80 78.08Q333.36 78.08 334.08 78Q334.80 77.92 335.60 77.84L335.60 77.84L335.60 88Q334.40 88.16 332.88 88.32Q331.36 88.48 330 88.48Z" fill="#0F172A"></path><path d="M353.76 88.96L353.76 88.96Q349.04 88.96 345.60 87.44Q342.16 85.92 340.32 83.08Q338.48 80.24 338.48 76.32L338.48 76.32Q338.48 72.64 340.16 69.80Q341.84 66.96 345.32 65.04Q348.80 63.12 354.00 62.32L354.00 62.32L366.08 60.40L366.08 59.20Q366.08 56.72 364.12 55.04Q362.16 53.36 358.80 53.36L358.80 53.36Q355.60 53.36 353.16 55.12Q350.72 56.88 349.60 59.76L349.60 59.76L340.00 55.20Q341.28 51.52 344.08 48.88Q346.88 46.24 350.80 44.80Q354.72 43.36 359.36 43.36L359.36 43.36Q364.88 43.36 369.12 45.36Q373.36 47.36 375.72 50.92Q378.08 54.48 378.08 59.20L378.08 59.20L378.08 88L366.88 88L366.88 83.84Q366.16 84.64 365.36 85.20L365.36 85.20Q363.04 87.12 360.16 88.04Q357.28 88.96 353.76 88.96ZM366.08 70.56L366.08 69.20L356.16 70.96Q353.60 71.44 352.24 72.60Q350.88 73.76 350.88 75.92L350.88 75.92Q350.88 77.92 352.40 79.04Q353.92 80.16 356.16 80.16L356.16 80.16Q359.12 80.16 361.36 78.88Q363.60 77.60 364.84 75.40Q366.08 73.20 366.08 70.56L366.08 70.56Z" fill="#0F172A"></path><path d="M408.96 88.96L408.96 88.96Q404.48 88.96 400.72 87.28L400.72 87.28Q397.76 86.08 395.68 83.84L395.68 83.84L395.68 88L384.48 88L384.48 27.44L396.48 27.44L396.48 48Q398.16 46.32 400.56 45.12L400.56 45.12Q404.24 43.36 409.04 43.36L409.04 43.36Q415.28 43.36 420.32 46.40Q425.36 49.44 428.32 54.60Q431.28 59.76 431.28 66.16L431.28 66.16Q431.28 72.48 428.36 77.68Q425.44 82.88 420.40 85.92Q415.36 88.96 408.96 88.96ZM407.52 78.16L407.52 78.16Q410.88 78.16 413.44 76.64Q416.00 75.12 417.44 72.40Q418.88 69.68 418.88 66.16Q418.88 62.64 417.44 59.96Q416.00 57.28 413.44 55.72Q410.88 54.16 407.52 54.16L407.52 54.16Q404.32 54.16 401.80 55.68Q399.28 57.20 397.88 59.92Q396.48 62.64 396.48 66.16Q396.48 69.68 397.88 72.40Q399.28 75.12 401.80 76.64Q404.32 78.16 407.52 78.16Z" fill="#0F172A"></path><path d="M447.92 88L435.92 88L435.92 27.44L447.92 27.44L447.92 88Z" fill="#0F172A"></path><path d="M475.36 88.96L475.36 88.96Q468.40 88.96 463.28 85.88Q458.16 82.80 455.36 77.60Q452.56 72.40 452.56 66.08L452.56 66.08Q452.56 59.52 455.48 54.40Q458.40 49.28 463.36 46.32Q468.32 43.36 474.56 43.36L474.56 43.36Q479.76 43.36 483.76 45Q487.76 46.64 490.52 49.60Q493.28 52.56 494.72 56.44Q496.16 60.32 496.16 64.88L496.16 64.88Q496.16 66.16 496.04 67.40Q495.92 68.64 495.60 69.52L495.60 69.52L465.04 69.52Q465.20 71.20 465.84 72.64L465.84 72.64Q467.04 75.44 469.52 77Q472 78.56 475.52 78.56L475.52 78.56Q478.72 78.56 481 77.28Q483.28 76 484.56 73.76L484.56 73.76L494.16 78.32Q492.88 81.52 490.12 83.92Q487.36 86.32 483.60 87.64Q479.84 88.96 475.36 88.96ZM465.28 60.72L465.28 60.72L483.44 60.72Q483.36 59.68 483.04 58.72L483.04 58.72Q482.16 56.08 479.96 54.52Q477.76 52.96 474.56 52.96L474.56 52.96Q471.44 52.96 469.20 54.48Q466.96 56 465.84 58.96L465.84 58.96Q465.52 59.76 465.28 60.72Z" fill="#0F172A"></path>
</svg>